<svg width="112" height="34" viewBox="0 0 112 34" fill="none" xmlns="http://www.w3.org/2000/svg">
<g clip-path="url(#clip0)">
<g filter="url(#filter0_d)">
<path d="M0 17C0 30.6 3.4 34 17 34C30.6 34 34 30.6 34 17C34 3.4 30.6 0 17 0C3.4 0 0 3.4 0 17Z" fill="black"/>
</g>
<path d="M0 17C0 30.6 3.4 34 17 34C30.6 34 34 30.6 34 17C34 3.4 30.6 0 17 0C3.4 0 0 3.4 0 17Z" fill="white"/>
<path opacity="0.7" d="M26.1419 16.3527C26.1576 16.4569 26.1462 16.5634 26.1087 16.6619L25.3317 18.5244C25.2551 18.7255 25.0785 18.8717 24.8665 18.9094L22.6591 19.3021C22.326 19.3614 22.008 19.1395 21.9487 18.8067C21.9357 18.7337 21.9361 18.659 21.9498 18.5861L22.3016 16.7183C22.3498 16.4625 22.5546 16.2651 22.8121 16.2262L25.4447 15.8389C25.7792 15.7883 26.0913 16.0184 26.1419 16.3527ZM24.5496 17.0048L23.429 17.1705C23.3429 17.1833 23.2744 17.2491 23.2583 17.3346L23.1512 17.9036C23.1303 18.0143 23.2032 18.121 23.3139 18.1418C23.3381 18.1464 23.363 18.1465 23.3874 18.1422L24.3839 17.9649C24.4524 17.9527 24.5099 17.9065 24.5366 17.8422L24.7679 17.2848C24.8111 17.1808 24.7617 17.0614 24.6576 17.0182C24.6235 17.0041 24.5862 16.9994 24.5496 17.0048ZM27.7203 12.4627C27.7327 12.5619 27.7206 12.6626 27.685 12.7561L26.9364 14.6338C26.8572 14.8421 26.671 14.9908 26.4503 15.0223L23.4148 15.4596C23.0799 15.5073 22.7697 15.2746 22.722 14.9399C22.7125 14.8736 22.714 14.8061 22.7264 14.7403L23.0818 12.8528C23.1311 12.5913 23.3437 12.3915 23.6079 12.3586L27.0366 11.931C27.3723 11.8891 27.6784 12.1271 27.7203 12.4627ZM25.8017 13.0708L23.8377 13.3158C23.7497 13.3267 23.6788 13.3933 23.6624 13.4804L23.5479 14.0885C23.5271 14.1993 23.5999 14.3059 23.7107 14.3268C23.7327 14.3309 23.7554 14.3314 23.7776 14.3282L25.6129 14.0627C25.6842 14.0524 25.7447 14.0053 25.7722 13.9388L26.0154 13.3513C26.0585 13.2472 26.0091 13.1278 25.905 13.0847C25.8723 13.0712 25.8367 13.0664 25.8017 13.0708ZM29.7147 7.62138C29.7239 7.7416 29.7064 7.86238 29.6634 7.97503L28.612 10.6102C28.5047 10.8912 28.2513 11.0905 27.9527 11.1288L22.4436 11.8342C21.9962 11.8915 21.587 11.5754 21.5297 11.1282C21.5192 11.0467 21.5212 10.9642 21.5354 10.8832L22.1364 8.00088C22.201 7.63369 22.5063 7.35688 22.8782 7.32828L28.8377 6.87012C29.2875 6.83555 29.6801 7.1719 29.7147 7.62138ZM27.3623 8.41555L23.152 8.76287L22.8379 10.3792L26.9858 9.80681C27.1276 9.78724 27.2487 9.69483 27.3051 9.56328L27.6347 8.79372C27.6939 8.65563 27.6299 8.49574 27.4918 8.4366C27.451 8.41913 27.4065 8.4119 27.3623 8.41555Z" fill="#FFA600"/>
<path d="M14.8909 8.77197H11.4313C10.5609 8.77197 9.81605 9.39658 9.66433 10.2536L7.33844 23.3927C7.16569 24.3686 7.81675 25.2997 8.79261 25.4725C8.89587 25.4908 9.00054 25.5 9.1054 25.5H12.5646L12.5906 25.4998C13.4495 25.4875 14.1809 24.8672 14.3314 24.019L14.9565 20.4952H16.1238L15.6099 23.3921C15.4367 24.3679 16.0874 25.2993 17.0633 25.4724C17.1667 25.4907 17.2716 25.5 17.3767 25.5H20.836C21.7064 25.5 22.4513 24.8754 22.603 24.0183L24.9289 10.8792C25.1016 9.90335 24.4506 8.9722 23.4747 8.79945C23.3715 8.78117 23.2668 8.77197 23.1619 8.77197H19.7029L19.6769 8.77216C18.8186 8.78446 18.0875 9.40395 17.9364 10.2514L17.3304 13.6498H16.1638L16.6574 10.8815C16.8314 9.90579 16.1815 8.97382 15.2059 8.79984C15.1019 8.7813 14.9965 8.77197 14.8909 8.77197ZM14.8909 9.65597C14.9444 9.65597 14.9979 9.6607 15.0507 9.67011C15.5408 9.7575 15.8688 10.2218 15.7897 10.7114L15.7872 10.7263L15.1845 14.1057C15.1808 14.1268 15.1789 14.1482 15.1789 14.1697C15.1789 14.3675 15.3367 14.5286 15.5334 14.5337L15.5431 14.5338H17.7657C17.9389 14.5338 18.0876 14.412 18.1224 14.2432L18.1242 14.2336L18.8066 10.4066C18.8833 9.97666 19.2542 9.66237 19.6896 9.65597H19.7029H23.1619C23.2151 9.65597 23.2682 9.66064 23.3206 9.66991C23.8108 9.75669 24.1395 10.2206 24.0609 10.7103L24.0584 10.7251L21.7326 23.8642C21.6564 24.2947 21.2852 24.6096 20.8494 24.616H20.836H17.3767C17.3234 24.616 17.2702 24.6113 17.2177 24.602C16.7275 24.515 16.399 24.051 16.4777 23.5613L16.4803 23.5465L17.1025 20.039C17.1062 20.018 17.1081 19.9967 17.1081 19.9754C17.1081 19.7775 16.9503 19.6164 16.7536 19.6113L16.7439 19.6112H14.5209C14.3476 19.6112 14.1987 19.7332 14.1641 19.9021L14.1623 19.9117L13.461 23.8646C13.3847 24.2949 13.0136 24.6096 12.5779 24.616H12.5646H9.1054C9.0522 24.616 8.99909 24.6113 8.9467 24.602C8.45653 24.5153 8.12787 24.0514 8.20639 23.5617L8.2089 23.5468L10.5348 10.4077C10.611 9.97727 10.9821 9.66239 11.4179 9.65597H11.4313H14.8909Z" fill="white"/>
<path d="M14.889 9.65601H11.4294C10.9878 9.65601 10.6099 9.97291 10.5329 10.4078L8.20696 23.5468C8.11931 24.042 8.44964 24.5144 8.94478 24.6021C8.99717 24.6113 9.05028 24.616 9.10348 24.616H12.5627C13.0042 24.616 13.382 24.2993 13.4591 23.8646L14.1604 19.9118C14.1913 19.7379 14.3424 19.6112 14.519 19.6112H16.7421C16.9433 19.6112 17.1063 19.7743 17.1063 19.9754C17.1063 19.9967 17.1044 20.018 17.1007 20.039L16.4784 23.5465C16.3906 24.0416 16.7208 24.5142 17.2159 24.602C17.2684 24.6113 17.3216 24.616 17.3749 24.616H20.8343C21.2759 24.616 21.6538 24.2991 21.7308 23.8643L24.0567 10.7252C24.1444 10.23 23.8141 9.7576 23.3189 9.66994C23.2665 9.66067 23.2134 9.65601 23.1602 9.65601H19.7012C19.26 9.65601 18.8823 9.97231 18.8049 10.4066L18.1224 14.2336C18.0914 14.4074 17.9404 14.5339 17.7639 14.5339H15.5412C15.3401 14.5339 15.1771 14.3708 15.1771 14.1697C15.1771 14.1483 15.1789 14.1269 15.1827 14.1058L15.7853 10.7263C15.8736 10.2313 15.5439 9.75842 15.0489 9.67015C14.9961 9.66074 14.9426 9.65601 14.889 9.65601Z" fill="#E75A2B"/>
<path d="M43.242 23H51.306V20.66H45.834V17.798H50.532V15.53H45.834V12.74H51.306V10.4H43.242V23ZM61.5955 23L58.3015 18.41L61.5055 13.928H58.7335L56.8435 16.574L54.9895 13.928H52.1635L55.4215 18.446L52.1455 23H54.9355L56.8795 20.3L58.7875 23H61.5955ZM67.8744 13.676C66.5784 13.676 65.6604 14.27 65.1384 14.918L64.7964 13.928H62.7084V26.528H65.2644V22.118C65.7504 22.712 66.6864 23.252 67.9104 23.252C70.3404 23.252 72.3204 21.236 72.3204 18.464C72.3564 15.728 70.2684 13.622 67.8744 13.676ZM67.4964 15.98C68.7744 15.98 69.7644 17.024 69.7644 18.464C69.7644 19.166 69.5484 19.76 69.1164 20.228C68.6664 20.714 68.1264 20.948 67.4964 20.948C66.2004 20.948 65.2644 19.904 65.2644 18.464C65.2644 17.024 66.2004 15.98 67.4964 15.98ZM73.8333 23H76.3893V10.4H73.8333V23ZM82.6524 23.252C85.2444 23.252 87.3864 21.254 87.3864 18.464C87.3864 15.674 85.2444 13.676 82.6524 13.676C80.0424 13.676 77.9004 15.674 77.9004 18.464C77.9004 21.254 80.0244 23.252 82.6524 23.252ZM82.6524 20.876C81.3744 20.876 80.4564 19.886 80.4564 18.464C80.4564 17.042 81.3744 16.052 82.6524 16.052C83.8764 16.052 84.8304 17.078 84.8304 18.464C84.8304 19.886 83.8764 20.876 82.6524 20.876ZM88.8935 23H91.4495V18.122C91.4495 16.808 92.1515 16.07 93.1595 16.07C93.5915 16.07 93.9335 16.16 94.1675 16.358L95.0675 14.09C94.6535 13.82 94.1315 13.676 93.5375 13.676C92.5115 13.676 91.7735 14.216 91.3595 14.918L90.9815 13.928H88.8935V23ZM104.121 19.256V18.392C104.121 15.62 102.465 13.676 99.8191 13.676C97.2811 13.622 95.1391 15.728 95.1931 18.464C95.1931 21.29 97.3171 23.252 99.8371 23.252C101.979 23.252 103.329 22.208 103.923 20.606L101.799 19.976C101.565 20.57 100.899 21.164 99.8371 21.164C98.6311 21.164 97.7311 20.264 97.6051 19.256H104.121ZM97.6231 17.51C97.8211 16.502 98.5951 15.71 99.8371 15.71C101.259 15.71 101.871 16.862 101.907 17.51H97.6231ZM105.641 23H108.197V18.122C108.197 16.808 108.899 16.07 109.907 16.07C110.339 16.07 110.681 16.16 110.915 16.358L111.815 14.09C111.401 13.82 110.879 13.676 110.285 13.676C109.259 13.676 108.521 14.216 108.107 14.918L107.729 13.928H105.641V23Z" fill="#2B2B2B"/>
</g>
<defs>
<filter id="filter0_d" x="-80" y="-80" width="194" height="194" filterUnits="userSpaceOnUse" color-interpolation-filters="sRGB">
<feFlood flood-opacity="0" result="BackgroundImageFix"/>
<feColorMatrix in="SourceAlpha" type="matrix" values="0 0 0 0 0 0 0 0 0 0 0 0 0 0 0 0 0 0 127 0"/>
<feOffset/>
<feGaussianBlur stdDeviation="40"/>
<feColorMatrix type="matrix" values="0 0 0 0 0.933333 0 0 0 0 0.670588 0 0 0 0 0.317647 0 0 0 0.2 0"/>
<feBlend mode="normal" in2="BackgroundImageFix" result="effect1_dropShadow"/>
<feBlend mode="normal" in="SourceGraphic" in2="effect1_dropShadow" result="shape"/>
</filter>
<clipPath id="clip0">
<rect width="112" height="34" fill="white"/>
</clipPath>
</defs>
</svg>
