<svg xmlns="http://www.w3.org/2000/svg" width="127" height="40" viewBox="0 0 126.98 40">
<defs><style>.cls-1{fill:#fff;}.cls-2{fill:#ffa600;opacity:0.7;isolation:isolate;}.cls-3{fill:#e75a2b;}.cls-4{fill:#2b2b2b;}</style></defs>
<g id="Layer_2" data-name="Layer 2">
<g id="Layer_1-2" data-name="Layer 1">
<path class="cls-1" d="M0,20C0,36,4,40,20,40s20-4,20-20S36,0,20,0,0,4,0,20Z"/>
<path class="cls-2" d="M30.75,19.24a.73.73,0,0,1,0,.36l-.92,2.19a.74.74,0,0,1-.55.46l-2.59.46a.72.72,0,0,1-.84-.58,1.13,1.13,0,0,1,0-.26l.42-2.2a.72.72,0,0,1,.6-.58l3.09-.46A.73.73,0,0,1,30.75,19.24ZM28.88,20l-1.32.19a.25.25,0,0,0-.2.19l-.12.67a.23.23,0,0,0,.19.28.11.11,0,0,0,.08,0l1.18-.2a.27.27,0,0,0,.18-.15l.27-.65A.25.25,0,0,0,29,20,.28.28,0,0,0,28.88,20Zm3.73-5.35a.69.69,0,0,1,0,.35l-.88,2.21a.7.7,0,0,1-.57.45l-3.57.52a.73.73,0,0,1-.82-.61.65.65,0,0,1,0-.24l.41-2.22a.72.72,0,0,1,.62-.58l4-.5A.72.72,0,0,1,32.61,14.66Zm-2.25.72L28,15.67a.23.23,0,0,0-.2.19l-.14.72a.25.25,0,0,0,.19.28H28l2.16-.32a.22.22,0,0,0,.19-.14l.29-.69a.25.25,0,0,0-.13-.32A.25.25,0,0,0,30.36,15.38ZM35,9a1,1,0,0,1-.06.41l-1.24,3.1a.94.94,0,0,1-.77.61l-6.49.83a1,1,0,0,1-1.06-1.12L26,9.41a1,1,0,0,1,.88-.79l7-.54A1,1,0,0,1,35,9Zm-2.77.93-4.95.41-.37,1.9,4.88-.67a.46.46,0,0,0,.37-.29l.39-.9a.31.31,0,0,0-.17-.42Z"/><path class="cls-1" d="M17.52,10.32H13.45a2.11,2.11,0,0,0-2.08,1.74L8.63,27.52A2.12,2.12,0,0,0,10.34,30l.37,0h4.1a2.11,2.11,0,0,0,2-1.74l.74-4.15H19l-.61,3.41A2.12,2.12,0,0,0,20.07,30l.37,0h4.07a2.1,2.1,0,0,0,2.08-1.74L29.33,12.8a2.12,2.12,0,0,0-1.71-2.45,2.31,2.31,0,0,0-.37,0h-4.1a2.11,2.11,0,0,0-2,1.74l-.71,4H19l.58-3.26a2.12,2.12,0,0,0-1.71-2.45A2.31,2.31,0,0,0,17.52,10.32Zm0,1,.19,0a1.08,1.08,0,0,1,.87,1.22v0l-.71,4v.07a.43.43,0,0,0,.41.43H20.9a.43.43,0,0,0,.42-.34h0l.8-4.51a1.08,1.08,0,0,1,1-.88h4.09l.19,0a1.07,1.07,0,0,1,.87,1.22v0L25.57,28.08a1.08,1.08,0,0,1-1,.88H20.44l-.18,0a1.06,1.06,0,0,1-.87-1.22v0l.73-4.12s0,0,0-.08a.44.44,0,0,0-.42-.43H17.08a.44.44,0,0,0-.42.34v0l-.82,4.65a1.08,1.08,0,0,1-1,.88H10.71l-.18,0a1.07,1.07,0,0,1-.88-1.22v0l2.73-15.46a1.08,1.08,0,0,1,1-.88h4.09Z"/><path class="cls-3" d="M17.52,11.36H13.45a1.07,1.07,0,0,0-1.06.88L9.66,27.7a1.06,1.06,0,0,0,.86,1.24l.19,0h4.07a1.06,1.06,0,0,0,1.05-.88l.83-4.66a.43.43,0,0,1,.42-.35H19.7a.42.42,0,0,1,.42.43v.07l-.73,4.13a1.06,1.06,0,0,0,.86,1.24l.19,0h4.07a1.08,1.08,0,0,0,1.06-.88L28.3,12.62a1.06,1.06,0,0,0-.87-1.24.55.55,0,0,0-.18,0H23.18a1.07,1.07,0,0,0-1.06.88l-.8,4.5a.43.43,0,0,1-.42.36H18.28a.42.42,0,0,1-.42-.43v-.08l.71-4a1.07,1.07,0,0,0-.87-1.24A.55.55,0,0,0,17.52,11.36Z"/><path class="cls-4" d="M50.79,27h9V24.4H53.67V21.22h5.22V18.7H53.67V15.6h6.08V13h-9Zm20.39,0-3.66-5.1,3.56-5H68l-2.1,2.94-2.06-2.94H60.7l3.62,5L60.68,27h3.1l2.16-3,2.12,3Zm7-10.36a3.82,3.82,0,0,0-3,1.38l-.38-1.1H72.42v14h2.84V26a3.8,3.8,0,0,0,2.94,1.26A5,5,0,0,0,83.1,22,5.06,5.06,0,0,0,78.16,16.64Zm-.42,2.56A2.58,2.58,0,0,1,80.26,22a2.79,2.79,0,0,1-.72,2,2.36,2.36,0,0,1-1.8.8A2.54,2.54,0,0,1,75.26,22,2.54,2.54,0,0,1,77.74,19.2Zm7,7.8h2.84V13H84.78Zm9.8.28A5.2,5.2,0,0,0,99.84,22,5.27,5.27,0,1,0,89.3,22,5.2,5.2,0,0,0,94.58,27.28Zm0-2.64A2.47,2.47,0,0,1,92.14,22a2.47,2.47,0,0,1,2.44-2.68A2.51,2.51,0,0,1,97,22,2.48,2.48,0,0,1,94.58,24.64ZM101.52,27h2.84V21.58c0-1.46.78-2.28,1.9-2.28a1.7,1.7,0,0,1,1.12.32l1-2.52a3.08,3.08,0,0,0-1.7-.46A2.73,2.73,0,0,0,104.26,18l-.42-1.1h-2.32Zm16.91-4.16v-1c0-3.08-1.83-5.24-4.78-5.24A5.12,5.12,0,0,0,108.51,22a5.16,5.16,0,0,0,5.17,5.32,4.45,4.45,0,0,0,4.53-2.94l-2.36-.7A2.23,2.23,0,0,1,113.68,25a2.48,2.48,0,0,1-2.48-2.12Zm-7.22-1.94a2.39,2.39,0,0,1,2.47-2,2.25,2.25,0,0,1,2.3,2Zm8.91,6.1H123V21.58c0-1.46.78-2.28,1.9-2.28a1.7,1.7,0,0,1,1.12.32l1-2.52a3.08,3.08,0,0,0-1.7-.46A2.73,2.73,0,0,0,122.86,18l-.42-1.1h-2.32Z"/>
</g></g></svg>