<svg width="24" height="24" viewBox="0 0 24 24" fill="none" xmlns="http://www.w3.org/2000/svg">
<path fill-rule="evenodd" clip-rule="evenodd" d="M0 1C0 0.447715 0.447715 0 1 0L23 -2.01072e-06C23.5523 -2.05901e-06 24 0.447713 24 0.999998C24 1.55228 23.5523 2 23 2L1 2C0.447715 2 0 1.55228 0 1ZM0 9C0 8.44772 0.447715 8 1 8L23 8C23.5523 8 24 8.44771 24 9C24 9.55228 23.5523 10 23 10L1 10C0.447715 10 0 9.55228 0 9ZM1 16C0.447715 16 0 16.4477 0 17C0 17.5523 0.447715 18 1 18L23 18C23.5523 18 24 17.5523 24 17C24 16.4477 23.5523 16 23 16L1 16Z" fill="#2B2B2B"/>
</svg>
